<svg width="165" height="158" viewBox="0 0 165 158" fill="none" xmlns="http://www.w3.org/2000/svg" xmlns:xlink="http://www.w3.org/1999/xlink">
<title>Rick SVG</title>
<path d="M37.3299 148.532L49.4227 142.496H103.722L121.505 148.532V134.587L135.969 142.496L130.515 122.098L152.33 118.143L135.969 96.2885L152.33 75.2661L126.722 64.0264L163 42.1715H111.546L115.577 7.4117L80.7216 34.4702L49.4227 2L41.5979 46.3343L2 34.4702L24.5258 69.4381L2 79.2208L24.5258 96.2885L6.97938 106.279L24.5258 118.143L16.2268 134.587H37.3299V148.532Z" fill="#B0DDF7" stroke="black" stroke-width="3" stroke-linecap="round" stroke-linejoin="round"/>
<mask id="path-2-inside-1" fill="white">
<path fill-rule="evenodd" clip-rule="evenodd" d="M112.301 125.528C106.131 144.668 93.6367 160.424 77.4274 157.69C55.989 157.69 45.6237 143.487 41.18 125.693C36.6248 125.144 31.6991 121.708 28.6967 116.515C24.5738 109.383 25.6388 101.639 31.0756 99.2168C33.2428 98.2513 35.7776 98.2774 38.3037 99.1096C38.3038 71.4363 38.3474 43.6284 77.4274 43.6284C111.757 43.6284 116.48 71.0759 116.55 98.5699C118.262 98.3588 119.921 98.5545 121.408 99.2168C126.845 101.639 127.91 109.383 123.787 116.515C121.003 121.331 116.564 124.636 112.301 125.528Z"/>
</mask>
<path fill-rule="evenodd" clip-rule="evenodd" d="M112.301 125.528C106.131 144.668 93.6367 160.424 77.4274 157.69C55.989 157.69 45.6237 143.487 41.18 125.693C36.6248 125.144 31.6991 121.708 28.6967 116.515C24.5738 109.383 25.6388 101.639 31.0756 99.2168C33.2428 98.2513 35.7776 98.2774 38.3037 99.1096C38.3038 71.4363 38.3474 43.6284 77.4274 43.6284C111.757 43.6284 116.48 71.0759 116.55 98.5699C118.262 98.3588 119.921 98.5545 121.408 99.2168C126.845 101.639 127.91 109.383 123.787 116.515C121.003 121.331 116.564 124.636 112.301 125.528Z" fill="#CFC9AF"/>
<path d="M112.301 125.528L111.892 123.571L110.754 123.809L110.398 124.915L112.301 125.528ZM77.4274 157.69L77.76 155.718L77.5949 155.69H77.4274V157.69ZM41.18 125.693L43.1204 125.208L42.7867 123.872L41.4192 123.707L41.18 125.693ZM28.6967 116.515L26.9652 117.516L26.9652 117.516L28.6967 116.515ZM31.0756 99.2168L31.8894 101.044L31.8894 101.044L31.0756 99.2168ZM38.3037 99.1096L37.6779 101.009L40.3037 101.874L40.3037 99.1096L38.3037 99.1096ZM77.4274 43.6284L77.4274 45.6284H77.4274V43.6284ZM116.55 98.5699L114.55 98.5749L114.556 100.831L116.795 100.555L116.55 98.5699ZM121.408 99.2168L122.222 97.3899L122.222 97.3899L121.408 99.2168ZM123.787 116.515L122.055 115.514L122.055 115.514L123.787 116.515ZM110.398 124.915C107.374 134.295 102.839 142.708 97.2067 148.406C91.6052 154.072 85.0502 156.948 77.76 155.718L77.0948 159.663C86.014 161.167 93.8108 157.531 100.051 151.218C106.261 144.936 111.059 135.901 114.205 126.142L110.398 124.915ZM77.4274 155.69C67.1984 155.69 59.7651 152.322 54.3386 146.944C48.8622 141.516 45.2906 133.899 43.1204 125.208L39.2396 126.178C41.513 135.281 45.3461 143.663 51.5228 149.785C57.7495 155.957 66.218 159.69 77.4274 159.69V155.69ZM41.4192 123.707C37.6125 123.249 33.1839 120.28 30.4282 115.514L26.9652 117.516C30.2144 123.136 35.6371 127.04 40.9408 127.679L41.4192 123.707ZM30.4282 115.514C28.5509 112.267 27.9224 108.992 28.2826 106.372C28.6395 103.777 29.9299 101.917 31.8894 101.044L30.2617 97.3899C26.7845 98.9389 24.824 102.162 24.3199 105.827C23.8192 109.468 24.7196 113.632 26.9652 117.516L30.4282 115.514ZM31.8894 101.044C33.4986 100.327 35.5035 100.293 37.6779 101.009L38.9296 97.2101C36.0518 96.2619 32.9871 96.1758 30.2617 97.3899L31.8894 101.044ZM40.3037 99.1096C40.3037 85.1291 40.3543 71.7651 45.0204 61.8426C47.3116 56.9705 50.7071 52.968 55.7948 50.1563C60.9134 47.3275 67.8832 45.6284 77.4274 45.6284L77.4274 41.6284C67.4317 41.6284 59.741 43.4053 53.8601 46.6553C47.9484 49.9224 44.0055 54.6014 41.4007 60.1404C36.275 71.0403 36.3037 85.4168 36.3037 99.1096L40.3037 99.1096ZM77.4274 45.6284C85.7429 45.6284 92.1164 47.2892 97.0236 50.0845C101.921 52.874 105.482 56.8637 108.071 61.7285C113.301 71.5558 114.515 84.8494 114.55 98.5749L118.55 98.5648C118.515 84.7964 117.334 70.6193 111.602 59.8493C108.71 54.4155 104.649 49.8249 99.0034 46.6088C93.3676 43.3985 86.277 41.6284 77.4274 41.6284V45.6284ZM122.222 97.3899C120.355 96.5583 118.322 96.3362 116.305 96.5849L116.795 100.555C118.201 100.381 119.487 100.551 120.594 101.044L122.222 97.3899ZM125.518 117.516C127.764 113.632 128.664 109.468 128.164 105.827C127.66 102.162 125.699 98.9389 122.222 97.3899L120.594 101.044C122.554 101.917 123.844 103.777 124.201 106.372C124.561 108.992 123.933 112.267 122.055 115.514L125.518 117.516ZM112.711 127.486C117.619 126.458 122.498 122.741 125.518 117.516L122.055 115.514C119.507 119.921 115.51 122.813 111.892 123.571L112.711 127.486Z" fill="black" mask="url(#path-2-inside-1)"/>
<path d="M38.9895 98.9943C39.6308 117.69 40.489 124.351 42.7833 130.216" stroke="black" stroke-width="2" stroke-linecap="round" stroke-linejoin="round"/>
<path d="M115.814 98.9943C114.933 117.69 113.753 124.351 110.598 130.216" stroke="black" stroke-width="2" stroke-linecap="round" stroke-linejoin="round"/>
<path d="M109.624 71.4652C109.624 71.7228 109.494 72.0861 108.675 72.498C107.845 72.9156 106.423 73.3162 104.1 73.6582C99.469 74.3402 91.439 74.7661 77.8763 74.7661C64.3137 74.7661 56.2837 74.3402 51.6522 73.6582C49.3298 73.3162 47.9072 72.9156 47.0773 72.498C46.28 72.0968 46.1361 71.7417 46.1292 71.4855C46.1354 71.4722 46.1561 71.4323 46.2174 71.364C46.3193 71.2507 46.4894 71.1087 46.7395 70.9453C47.2372 70.6204 47.9798 70.2572 48.9217 69.8973C50.8008 69.1792 53.4051 68.4998 56.2663 68.1608C59.1485 67.8193 62.3013 67.8182 65.8689 67.9046C66.8783 67.9291 67.9211 67.9605 68.9993 67.9931C71.7219 68.0753 74.6702 68.1643 77.8763 68.1643C87.5902 68.1643 95.6302 68.5893 101.233 69.2738C104.039 69.6165 106.213 70.0219 107.676 70.4643C108.411 70.6866 108.936 70.9095 109.267 71.1207C109.432 71.2259 109.528 71.3153 109.579 71.3818C109.604 71.4136 109.615 71.4359 109.62 71.4484C109.624 71.4595 109.624 71.4643 109.624 71.4651V71.4652Z" fill="#B0DDF7" stroke="black"/>
<path d="M74.031 94.4152C74.031 101.64 71.504 105.066 68.6287 106.772C65.647 108.541 62.0666 108.61 59.6595 108.61C55.2165 108.61 51.9894 107.324 49.6941 104.981C47.3867 102.626 45.9056 99.0844 45.2064 94.3432C45.2199 90.4141 46.3414 86.9455 48.4723 84.4708C50.5983 82.0017 53.8075 80.429 58.196 80.429C62.767 80.429 66.7142 81.2039 69.5037 83.2768C72.233 85.305 74.031 88.7127 74.031 94.4152Z" fill="#F4F4F4" stroke="black" stroke-width="2"/>
<path d="M80.7731 94.4152C80.7731 87.0566 82.6218 83.7565 85.2277 82.1541C86.5776 81.3241 88.2301 80.8821 90.1707 80.6565C92.1162 80.4303 94.2695 80.429 96.6081 80.429C101.119 80.429 104.384 81.4387 106.671 83.5915C108.961 85.7469 110.436 89.2038 111.02 94.4694C110.994 102.176 105.326 108.401 96.6081 108.401C92.0371 108.401 88.09 107.627 85.3004 105.554C82.5711 103.525 80.7731 100.118 80.7731 94.4152Z" fill="#F4F4F4" stroke="black" stroke-width="2"/>

<!-- <eyes> -->
<!-- <path fill-rule="evenodd" clip-rule="evenodd" d="M56.7573 92.8179L56.3243 91.5012L55.8476 92.9508L54.3288 91.6786L54.9496 93.6958H53.2673L54.3487 94.4721L53.2163 95.2498L55.0443 95.3937L54.435 97.2466L55.7516 96.3014L56.196 97.7455L56.6918 96.154L58.2137 97.2466L57.6723 95.6004L59.15 95.7167L57.9575 94.7179L59.3814 93.6958H57.4575L57.996 91.9672L56.7573 92.8179Z" fill="black"/>
<path fill-rule="evenodd" clip-rule="evenodd" d="M101.335 95.7318L100.902 94.4152L100.425 95.8647L98.9062 94.5926L99.527 96.6097H97.8447L98.9261 97.386L97.7937 98.1638L99.6217 98.3076L99.0124 100.161L100.329 99.2154L100.773 100.659L101.269 99.068L102.791 100.161L102.25 98.5144L103.727 98.6306L102.535 97.6318L103.959 96.6097H102.035L102.573 94.8811L101.335 95.7318Z" fill="black"/> -->
<!-- </eyes> -->

<circle cx="56.7573" cy="92.8179" r="2" fill="black" stroke="black" stroke-width="1">
  <set
      attributeName="cy" to="105.7318"
      begin="2s" />
</circle>
<circle cx="101.335" cy="95.7318" r="2" fill="black" stroke="black" stroke-width="1">
  <set
      attributeName="cy" to="105.7318"
      begin="2s" />
</circle>
<path fill-rule="evenodd" clip-rule="evenodd" d="M45.6289 110.65C46.8001 112.175 49.5241 113.403 53.0113 114.001C53.1589 114.027 53.3078 114.051 53.4581 114.074C54.8211 114.283 56.2915 114.397 57.8249 114.397C59.3583 114.397 60.8287 114.283 62.1917 114.074C62.3419 114.051 62.4909 114.027 62.6385 114.001C64.4965 113.683 66.1379 113.185 67.4432 112.559C64.9847 113.13 62.1835 113.453 59.2109 113.453C53.7517 113.453 48.8707 112.363 45.6289 110.65Z" fill="black"/>
<path fill-rule="evenodd" clip-rule="evenodd" d="M109.446 112.279C108.285 113.727 105.458 114.991 101.78 115.727C100.18 116.047 98.419 116.268 96.5637 116.361C94.7083 116.453 92.9301 116.41 91.2991 116.251C89.3118 116.058 87.5431 115.694 86.1199 115.197C88.7953 115.587 91.8243 115.732 95.0183 115.572C100.884 115.279 106.064 114.02 109.446 112.279Z" fill="black"/>
<path fill-rule="evenodd" clip-rule="evenodd" d="M59.5486 136.209C63.8765 133.787 70.199 132.031 77.3676 131.549C84.0981 130.7 91.5694 132.157 96.9681 135.015C96.9659 134.995 96.9634 134.975 96.9607 134.954C96.0071 132.552 91.6889 130.78 85.1322 130.372C84.3965 130.326 83.6327 130.297 82.8423 130.287C80.7524 130.259 78.4766 130.359 76.0443 130.605C74.031 130.809 72.1808 131.069 70.501 131.382C69.9363 131.487 69.3907 131.598 68.8647 131.715C64.0652 132.779 60.8913 134.32 59.5486 136.209Z" fill="black"/>
<path fill-rule="evenodd" clip-rule="evenodd" d="M60.0513 130.609C59.0015 130.762 57.9525 131.051 56.9632 131.483C53.7998 133.598 52.9517 136.066 54.5177 138.667C56.6177 141.076 60.7132 141.375 64.5679 140.209C64.5681 140.209 64.5683 140.209 64.5685 140.209C60.4083 140.818 56.5572 139.812 55.3363 137.592C54.0473 135.249 56.1187 132.332 60.0513 130.609Z" fill="black"/>
<path fill-rule="evenodd" clip-rule="evenodd" d="M97.874 128.762C98.9368 128.715 100.032 128.801 101.103 129.038C104.708 130.511 106.137 132.763 105.24 135.597C103.775 138.345 99.8461 139.404 95.7966 138.988C95.7963 138.988 95.7961 138.987 95.7958 138.987C100.008 138.803 103.526 137.098 104.179 134.701C104.868 132.17 102.135 129.709 97.874 128.762Z" fill="black"/>
<path d="M72.225 132.469C72.2442 132.432 72.2628 132.397 72.2806 132.364C72.4196 132.34 72.5884 132.311 72.7827 132.279C73.3768 132.18 74.2079 132.049 75.1546 131.919C77.0615 131.657 79.3864 131.407 81.1865 131.424C82.8416 131.44 84.9762 131.69 86.7262 131.943C87.595 132.069 88.3576 132.194 88.9027 132.287C89.0187 132.307 89.1248 132.326 89.2199 132.342C89.2297 132.371 89.2398 132.4 89.25 132.431C89.3748 132.803 89.522 133.308 89.6189 133.853C89.7171 134.405 89.756 134.955 89.6932 135.432C89.6307 135.906 89.478 136.239 89.2539 136.459C88.8836 136.823 88.445 136.897 87.5949 136.915C87.5271 136.916 87.456 136.917 87.3819 136.918C86.6168 136.927 85.5386 136.94 84.528 137.531C83.6034 138.072 83.1929 138.957 82.9809 139.747C82.8296 140.311 82.7515 140.956 82.6872 141.489C82.666 141.664 82.6463 141.827 82.6259 141.97C82.5259 142.677 82.409 142.971 82.3029 143.085C82.2823 143.107 82.2559 143.132 82.167 143.147C82.0549 143.166 81.8345 143.169 81.4514 143.068C80.6108 142.846 80.2289 142.549 80.0273 142.298C79.8157 142.036 79.7036 141.705 79.6133 141.209C79.5928 141.096 79.5745 140.968 79.5546 140.829C79.4217 139.901 79.2154 138.461 77.7944 137.552C76.6871 136.844 75.5145 136.766 74.631 136.708C74.5649 136.703 74.5003 136.699 74.4376 136.695C73.4761 136.627 72.8624 136.531 72.3206 136.049C71.5901 135.4 71.5332 134.536 71.7722 133.625C71.8898 133.176 72.0698 132.769 72.225 132.469Z" fill="#D1EBC4" stroke="black" stroke-width="2" stroke-linejoin="round"/>

</svg>
